# xmcd CD database file
#
# Track frame offsets:
#	150
#	19205
#	41712
#	57505
#	81375
#	95607
#	112400
#	124940
#	135175
#	149220
#	171750
#	188792
#	201267
#
# Disc length: 2836 seconds
#
# Revision: 2
# Processed by: cddbd v1.5.1PL2 Copyright (c) Steve Scherf et al.
# Submitted via: CDex 1.51
#
DISCID=cb0b120d
DTITLE=Nils Lindberg - Alone with my melodies
DYEAR=1995
DGENRE=Jazz
TTITLE0=Ad Lib I (Introduction)
TTITLE1=Ballad från Mockfjärd
TTITLE2=Waltz från Enviken
TTITLE3=Shall I compare thee to a summer´s day
TTITLE4=Tune for a wedding
TTITLE5=Ad Lib II (Interlude)
TTITLE6=Day-dreamimg
TTITLE7=Hearding tune
TTITLE8=A ditty
TTITLE9=Torn Erik´s song
TTITLE10=In memoriam
TTITLE11=As you are
TTITLE12=Ad Lib III (Epilogue)
EXTD=YEAR: 1995
EXTT0=
EXTT1=
EXTT2=
EXTT3=
EXTT4=
EXTT5=
EXTT6=
EXTT7=
EXTT8=
EXTT9=
EXTT10=
EXTT11=
EXTT12=
PLAYORDER=
